<?xml version="1.0" encoding="UTF-8"?>
<svg width="24px" height="18px" viewBox="0 0 24 18" version="1.1" xmlns="http://www.w3.org/2000/svg" xmlns:xlink="http://www.w3.org/1999/xlink">
    <title>Group 3@2x</title>
    <defs>
        <polygon id="path-1" points="4.8e-05 2.4e-05 23.99388 2.4e-05 23.99388 17.38344 4.8e-05 17.38344"></polygon>
    </defs>
    <g id="Desktop" stroke="none" stroke-width="1" fill="none" fill-rule="evenodd">
        <g id="Smart-Buyer-Market-Pricing---Graph-view" transform="translate(-432.000000, -925.000000)">
            <g id="Group-6" transform="translate(427.000000, 917.000000)">
                <g id="Group-3" transform="translate(5.000000, 8.000000)">
                    <mask id="mask-2" fill="white">
                        <use xlink:href="#path-1"></use>
                    </mask>
                    <g id="Clip-2"></g>
                    <path d="M5.686368,2.737584 C5.938368,1.981584 6.766368,1.465584 7.558368,1.465584 L16.618368,1.465584 C17.422368,1.465584 18.250368,1.981584 18.490368,2.737584 L19.966368,6.481584 L4.210368,6.481584 L5.686368,2.737584 Z M19.612488,12.214224 C18.782568,12.214224 18.109728,11.541264 18.109728,10.711344 C18.109728,9.881304 18.782568,9.208464 19.612488,9.208464 C20.442528,9.208464 21.115368,9.881304 21.115368,10.711344 C21.115368,11.541264 20.442528,12.214224 19.612488,12.214224 L19.612488,12.214224 Z M15.242808,11.924544 L8.842128,11.924544 C8.437128,11.924544 8.108928,11.596224 8.108928,11.191224 C8.108928,10.786344 8.437128,10.458144 8.842128,10.458144 L15.242808,10.458144 C15.647808,10.458144 15.976128,10.786344 15.976128,11.191224 C15.976128,11.596224 15.647808,11.924544 15.242808,11.924544 L15.242808,11.924544 Z M4.422288,12.214224 C3.592368,12.214224 2.919528,11.541264 2.919528,10.711344 C2.919528,9.881304 3.592368,9.208464 4.422288,9.208464 C5.252328,9.208464 5.925168,9.881304 5.925168,10.711344 C5.925168,11.541264 5.252328,12.214224 4.422288,12.214224 L4.422288,12.214224 Z M23.993928,5.725344 C23.962968,5.296704 23.606208,4.958424 23.169648,4.958424 L21.178728,4.958424 L19.885128,2.055984 C19.473888,0.834504 18.324888,2.4e-05 17.030928,2.4e-05 L7.016688,2.4e-05 C5.710608,2.4e-05 4.561608,0.822384 4.162488,2.055984 L2.886768,4.958424 L0.824208,4.958424 C0.387648,4.958424 0.031008,5.296704 4.8e-05,5.725344 C0.031728,6.469944 0.648528,6.955464 1.406808,6.955464 L2.008848,6.955464 L1.415208,8.306184 C1.304928,8.557104 1.248408,8.828304 1.249248,9.102384 L1.264848,14.302464 L1.264848,16.527264 C1.264848,17.000064 1.648248,17.383464 2.121048,17.383464 L5.140848,17.383464 C5.613768,17.383464 5.997048,17.000064 5.997048,16.527264 L5.997048,14.302464 L18.109728,14.302464 L18.109728,16.527264 C18.109728,17.000064 18.493008,17.383464 18.965928,17.383464 L21.985728,17.383464 C22.458528,17.383464 22.841808,17.000064 22.841808,16.527264 L22.841808,14.302464 L22.840488,9.104304 C22.840488,8.829024 22.782528,8.556744 22.670448,8.305224 L22.068888,6.955464 L22.587048,6.955464 C23.345448,6.955464 23.962128,6.469944 23.993928,5.725344 L23.993928,5.725344 Z" id="Fill-1" fill="#007CC2" mask="url(#mask-2)"></path>
                </g>
            </g>
        </g>
    </g>
</svg>