<svg width="20px" height="18px" viewBox="0 0 20 18" version="1.1" xmlns="http://www.w3.org/2000/svg" xmlns:xlink="http://www.w3.org/1999/xlink">
    <defs>
        <polygon id="path-1" points="0 0.0637426901 19.9754386 0.0637426901 19.9754386 16.7251345 0 16.7251345"></polygon>
    </defs>
    <g id="Smart-Buyer" stroke="none" stroke-width="1" fill="none" fill-rule="evenodd">
        <g id="Smart-Buyer-Activity-&amp;-Pricing" transform="translate(-642.000000, -1376.000000)">
            <g id="Group-6" transform="translate(635.000000, 1367.000000)">
                <g id="Group-8" transform="translate(7.000000, 9.000000)">
                    <path d="M15.8549825,10.7864211 C15.3043392,10.7864211 14.856269,10.3384678 14.856269,9.7877076 C14.856269,9.23706433 15.3043392,8.78911111 15.8549825,8.78911111 C16.4056257,8.78911111 16.8536959,9.23706433 16.8536959,9.7877076 C16.8536959,10.3384678 16.4056257,10.7864211 15.8549825,10.7864211 M15.8549825,7.79039766 C14.7519415,7.79039766 13.8576725,8.68466667 13.8576725,9.7877076 C13.8576725,10.8908655 14.7519415,11.7850175 15.8549825,11.7850175 C16.9581404,11.7850175 17.8522924,10.8908655 17.8522924,9.7877076 C17.8522924,8.68466667 16.9581404,7.79039766 15.8549825,7.79039766" id="Fill-1" fill="#0387C9"></path>
                    <path d="M3.87107602,10.7864211 C3.32043275,10.7864211 2.87236257,10.3384678 2.87236257,9.7877076 C2.87236257,9.23706433 3.32043275,8.78911111 3.87107602,8.78911111 C4.4217193,8.78911111 4.86967251,9.23706433 4.86967251,9.7877076 C4.86967251,10.3384678 4.4217193,10.7864211 3.87107602,10.7864211 M3.87107602,7.79039766 C2.76791813,7.79039766 1.87376608,8.68466667 1.87376608,9.7877076 C1.87376608,10.8908655 2.76791813,11.7850175 3.87107602,11.7850175 C4.97411696,11.7850175 5.86838596,10.8908655 5.86838596,9.7877076 C5.86838596,8.68466667 4.97411696,7.79039766 3.87107602,7.79039766" id="Fill-3" fill="#0387C9"></path>
                    <g id="Group-7" transform="translate(0.000000, 0.053216)">
                        <mask id="mask-2" fill="white">
                            <use xlink:href="#path-1"></use>
                        </mask>
                        <g id="Clip-6"></g>
                        <path d="M18.9767251,8.20396491 L18.9767251,9.20279532 L18.9767251,10.1733216 L18.9767251,12.7300468 L13.165614,12.7300468 L13.165614,10.8919181 C13.165614,10.803848 13.094269,10.7325029 13.0061988,10.7325029 L6.96923977,10.7325029 C6.88116959,10.7325029 6.80982456,10.803848 6.80982456,10.8919181 L6.80982456,12.7300468 L0.998830409,12.7300468 L0.998830409,10.1733216 L0.998830409,9.20279532 L0.998830409,8.20396491 L0.998830409,6.7374152 L2.57368421,6.7374152 L3.57239766,6.7374152 L3.99508772,6.7374152 L15.9803509,6.7374152 L16.4030409,6.7374152 L17.4017544,6.7374152 L18.9767251,6.7374152 L18.9767251,8.20396491 Z M18.9767251,15.2270058 C18.9767251,15.5023275 18.7526316,15.7263041 18.4773099,15.7263041 L16.4797661,15.7263041 C16.2044444,15.7263041 15.9803509,15.5023275 15.9803509,15.2270058 L15.9803509,13.7287602 L18.9767251,13.7287602 L18.9767251,15.2270058 Z M7.80865497,12.7300468 L12.1669006,12.7300468 L12.1669006,11.7312164 L7.80865497,11.7312164 L7.80865497,12.7300468 Z M3.99508772,15.2270058 C3.99508772,15.5023275 3.77111111,15.7263041 3.49567251,15.7263041 L1.49812865,15.7263041 C1.22280702,15.7263041 0.998830409,15.5023275 0.998830409,15.2270058 L0.998830409,13.7287602 L3.99508772,13.7287602 L3.99508772,15.2270058 Z M1.49824561,4.74127485 L2.73216374,4.74127485 L2.4154386,5.73870175 L0.998947368,5.73870175 L0.998947368,5.12150877 C0.998947368,4.9154269 1.22760234,4.74127485 1.49824561,4.74127485 L1.49824561,4.74127485 Z M3.57239766,5.39507602 L4.53766082,2.35449123 C4.78304094,1.58174269 5.40842105,1.0625614 6.09403509,1.0625614 L13.8815205,1.0625614 C14.5670175,1.0625614 15.1925146,1.58174269 15.4377778,2.35449123 L16.4030409,5.39495906 L16.4030409,5.73870175 L3.57239766,5.73870175 L3.57239766,5.39507602 Z M18.4774269,4.74127485 C18.7481871,4.74127485 18.9768421,4.9154269 18.9768421,5.12150877 L18.9768421,5.73870175 L17.56,5.73870175 L17.2433918,4.74127485 L18.4774269,4.74127485 Z M18.4774269,3.74244444 L16.9263158,3.74244444 L16.3897076,2.05226901 C16.0112281,0.859754386 15.0071345,0.0637309942 13.8815205,0.0637309942 L6.09403509,0.0637309942 C4.96842105,0.0637309942 3.96432749,0.859754386 3.58573099,2.05226901 L3.04912281,3.74244444 L1.49824561,3.74244444 C0.670994152,3.74244444 0.000233918129,4.3599883 0.000233918129,5.12150877 L0.000233918129,6.05109942 C0.000233918129,6.05215205 0,6.05297076 0,6.05390643 L0,11.7312164 L0,13.7287602 L0,15.2270058 C0,16.0543743 0.670760234,16.7251345 1.49812865,16.7251345 L3.49567251,16.7251345 C4.32315789,16.7251345 4.99391813,16.0543743 4.99391813,15.2270058 L4.99391813,13.7287602 L6.80982456,13.7287602 L13.165614,13.7287602 L14.9816374,13.7287602 L14.9816374,15.2270058 C14.9816374,16.0543743 15.6523977,16.7251345 16.4797661,16.7251345 L18.4773099,16.7251345 C19.3046784,16.7251345 19.9754386,16.0543743 19.9754386,15.2270058 L19.9754386,13.7287602 L19.9754386,11.7312164 L19.9754386,8.73589474 L19.9754386,6.05390643 L19.9754386,5.12150877 C19.9754386,4.3599883 19.3047953,3.74244444 18.4774269,3.74244444 L18.4774269,3.74244444 Z" id="Fill-5" fill="#0387C9" mask="url(#mask-2)"></path>
                    </g>
                </g>
            </g>
        </g>
    </g>
</svg>