<?xml version="1.0" encoding="UTF-8"?>
<svg width="9px" height="10px" viewBox="0 0 9 10" version="1.1" xmlns="http://www.w3.org/2000/svg" xmlns:xlink="http://www.w3.org/1999/xlink">
    <title>Date_icn@2x</title>
    <defs>
        <polygon id="path-1" points="0 0.000327272727 8.59090909 0.000327272727 8.59090909 9.81818182 0 9.81818182"></polygon>
    </defs>
    <g id="Smart-Buyer" stroke="none" stroke-width="1" fill="none" fill-rule="evenodd">
        <g id="Smart-Buyer-Activity-&amp;-Pricing" transform="translate(-772.000000, -2173.000000)">
            <g id="Group-12" transform="translate(759.000000, 2119.000000)">
                <g id="Date_icn" transform="translate(13.000000, 54.000000)">
                    <mask id="mask-2" fill="white">
                        <use xlink:href="#path-1"></use>
                    </mask>
                    <g id="Clip-2"></g>
                    <path d="M7.67045455,8.78269091 L7.67045455,3.06850909 L0.920454545,3.06850909 L0.920454545,8.78269091 C0.920454545,8.84569091 0.972,8.89805455 1.03581818,8.89805455 L7.55509091,8.89805455 C7.61890909,8.89805455 7.67045455,8.84569091 7.67045455,8.78269091 M8.59090909,2.14805455 L8.59090909,8.89805455 C8.59090909,9.40614545 8.17854545,9.81850909 7.67045455,9.81850909 L0.920454545,9.81850909 C0.412363636,9.81850909 0,9.40614545 0,8.89805455 L0,2.14805455 C0,1.63996364 0.412363636,1.2276 0.920454545,1.2276 L1.84090909,1.2276 L1.84090909,0.230236364 C1.84090909,0.104236364 1.94481818,0.000327272727 2.07081818,0.000327272727 L2.83827273,0.000327272727 C2.96427273,0.000327272727 3.06818182,0.104236364 3.06818182,0.230236364 L3.06818182,1.2276 L5.52272727,1.2276 L5.52272727,0.230236364 C5.52272727,0.104236364 5.62663636,0.000327272727 5.75263636,0.000327272727 L6.52009091,0.000327272727 C6.64609091,0.000327272727 6.75,0.104236364 6.75,0.230236364 L6.75,1.2276 L7.67045455,1.2276 C8.17854545,1.2276 8.59090909,1.63996364 8.59090909,2.14805455" id="Fill-1" fill="#808080" mask="url(#mask-2)"></path>
                </g>
            </g>
        </g>
    </g>
</svg>