<?xml version="1.0" encoding="UTF-8"?>
<svg width="16px" height="12px" viewBox="0 0 16 12" version="1.1" xmlns="http://www.w3.org/2000/svg" xmlns:xlink="http://www.w3.org/1999/xlink">
    <title>ChartView_icn@2x</title>
    <defs>
        <polygon id="path-1" points="0 0.000266666667 16 0.000266666667 16 12 0 12"></polygon>
    </defs>
    <g id="Smart-Buyer" stroke="none" stroke-width="1" fill="none" fill-rule="evenodd">
        <g id="Smart-Buyer-Market-Pricing--Graph-view-(Dropdown)" transform="translate(-1076.000000, -397.000000)">
            <g id="ChartView_icn" transform="translate(1076.000000, 397.000000)">
                <mask id="mask-2" fill="white">
                    <use xlink:href="#path-1"></use>
                </mask>
                <g id="Clip-2"></g>
                <path d="M13,7.60026667 L13,0.400266667 C13,0.200266667 13.2,0.000266666667 13.4,0.000266666667 L14.6,0.000266666667 C14.8,0.000266666667 15,0.200266667 15,0.400266667 L15,7.60026667 C15,7.79893333 14.8,8.00026667 14.6,8.00026667 L13.4,8.00026667 C13.2,8.00026667 13,7.79893333 13,7.60026667 M10,7.60026667 L10,3.40026667 C10,3.20026667 10.2,3.00026667 10.4,3.00026667 L11.6,3.00026667 C11.8,3.00026667 12,3.20026667 12,3.40026667 L12,7.60026667 C12,7.79893333 11.8,8.00026667 11.6,8.00026667 L10.4,8.00026667 C10.2,8.00026667 10,7.79893333 10,7.60026667 M7,7.60026667 L7,1.40026667 C7,1.20026667 7.2,1.00026667 7.4,1.00026667 L8.6,1.00026667 C8.8,1.00026667 9,1.20026667 9,1.40026667 L9,7.60026667 C9,7.79893333 8.8,8.00026667 8.6,8.00026667 L7.4,8.00026667 C7.2,8.00026667 7,7.79893333 7,7.60026667 M4,7.60026667 L4,5.40026667 C4,5.20026667 4.2,5.00026667 4.4,5.00026667 L5.6,5.00026667 C5.8,5.00026667 6,5.20026667 6,5.40026667 L6,7.60026667 C6,7.79893333 5.8,8.00026667 5.6,8.00026667 L4.4,8.00026667 C4.2,8.00026667 4,7.79893333 4,7.60026667 M16,10.5002667 L16,11.5002667 C16,11.7762667 15.776,12.0002667 15.5,12.0002667 L1,12.0002667 C0.448,12.0002667 0,11.5522667 0,11.0002667 L0,0.500266667 C0,0.224266667 0.224,0.000266666667 0.5,0.000266666667 L1.5,0.000266666667 C1.776,0.000266666667 2,0.224266667 2,0.500266667 L2,10.0002667 L15.5,10.0002667 C15.776,10.0002667 16,10.2242667 16,10.5002667" id="Fill-1" fill="#027CC2" mask="url(#mask-2)"></path>
            </g>
        </g>
    </g>
</svg>